<?xml version="1.0" encoding="UTF-8"?>
<svg id="Camada_1" data-name="Camada 1" xmlns="http://www.w3.org/2000/svg" xmlns:xlink="http://www.w3.org/1999/xlink" viewBox="0 0 648 286.672">
  <defs>
    <style>
      .cls-1 {
        fill: none;
      }

      .cls-2 {
        clip-path: url(#clippath);
      }

      .cls-3 {
        fill: #fff;
      }

      .cls-4 {
        clip-path: url(#clippath-1);
      }
    </style>
    <clipPath id="clippath">
      <rect class="cls-1" width="648" height="286.672"/>
    </clipPath>
    <clipPath id="clippath-1">
      <rect class="cls-1" width="648" height="286.672"/>
    </clipPath>
  </defs>
  <g class="cls-2">
    <g class="cls-4">
      <path class="cls-3" d="M41.63196,237.6964h-9.24396l-1.76501-19.828h9.24402l1.76495,19.828Zm559.73505,0h9.24396l1.76501-19.828h-9.24402l-1.76495,19.828ZM25.15997,217.8684H15.91498l1.76501,19.828h9.245l-1.76501-19.828Zm590.91602,19.828h9.24402l1.76495-19.828h-9.24396l-1.76501,19.828Zm-527.65601,4.825c0,7.01-5.01501,12.978-12.56699,12.978-7.48602,0-12.63901-6.108-12.63901-13.117v-.139c0-7.01,5.01199-12.979,12.496-12.979,7.556,0,12.70999,6.108,12.70999,13.118v.139m-39.25702,0c0,13.951,11.29703,25.125,26.54703,25.125,15.25098,0,26.69-11.313,26.69-25.264v-.139c0-13.951-11.29602-25.125-26.547-25.125-15.25302,0-26.69003,11.312-26.69003,25.264v.139m61.75702,24.154h13.69699v-17.352h23.371v-11.175h-23.371v-8.26h25.84302v-11.798h-39.54001v48.585Zm47.513,0h13.698v-17.352h23.37v-11.175h-23.37v-8.26h25.841v-11.798h-39.539v48.585Zm78.08499,0h13.69601v-36.786h14.82898v-11.798h-43.353v11.798h14.828v36.786Zm37.51501,0h13.69901v-18.462h17.58099v18.462h13.69699v-48.585h-13.69699v18.185h-17.58099v-18.185h-13.69901v48.585Zm54.26199,0h40.10602v-11.454h-26.54901v-7.702h23.724v-10.62h-23.724v-7.357h26.19501v-11.452h-39.75201v48.585Zm77.733,.347h11.93301l9.88397-27.971,9.95703,27.971h11.93097l16.52402-48.932h-14.19302l-8.61398,28.109-9.53299-28.247h-11.79001l-9.53299,28.247-8.61301-28.109h-14.47501l16.522,48.932Zm76.24802-19.503l5.57797-13.812,5.50702,13.812h-11.08499Zm-21.95901,19.156h14.40399l3.53-8.675h19.065l3.60101,8.675h14.685l-21.04001-48.932h-13.20401l-21.04099,48.932Zm61.84598,0h37.63501v-11.799h-23.93701v-36.786h-13.698v48.585Zm45.25702,0h37.633v-11.799h-23.935v-36.786h-13.698v48.585Z"/>
      <path class="cls-3" d="M545.73132,95.8436h-26.56201c-2.57703-6.52299-5.45105-11.612-20.34402-11.612-10.28101,0-14.66,4.23401-14.66,8.491,0,4.642,3.65802,8.56,15.004,11.075l24.06204,6.42c15.74695,4.21001,23.39197,16.70901,23.39197,29.916,0,7.347-1.58801,16.22601-8.56299,23.48701-5.21301,5.426-13.09497,12.586-39.23502,12.586-35.94601,0-47.75998-22.721-47.75998-36.452h27.98898c2.75101,10.02501,9.62799,13.84201,23.26199,13.84201,9.43903,0,17.54504-3.367,17.54504-10.59001,0-6.86899-5.86804-9.45399-13.45404-11.52699l-19.01001-5.131c-9.16498-2.79001-16.828-5.02301-22.237-9.60701-14.16498-12-13.13397-33.672,2.27002-44.94099,8.52798-6.235,17.26898-9.491,31.14099-9.491,16.29999,0,25.60101,4.65399,32.93799,9.703,6.5,4.47299,14.22205,15.26498,14.22205,23.83099M97.0743,19.0256c.217,.952,55.60399,155.87499,55.60399,155.87499h33.043L236.61929,45.9906h316.11899l2.40002-26.965H212.32529l-42.23999,106.88699L132.0553,19.0256h-34.981M370.47827,119.17459l41.26602,55.72601h25.81998V64.6846h-29.802v59.942l-37.42999-59.942h-28.534v110.216h28.67999v-55.72601Zm185.84003,50.00101c0-3.204-2.55701-5.841-5.841-5.841s-5.875,2.66901-5.875,5.874c0,3.203,2.55701,5.84,5.84302,5.84,3.28394,0,5.87299-2.66901,5.87299-5.873m-.67999,0c0,2.88-2.23303,5.226-5.19299,5.226-2.94507,0-5.16302-2.314-5.16302-5.193,0-2.88,2.23401-5.227,5.19501-5.227,2.94501,0,5.16101,2.314,5.16101,5.194m-2.37805-1.213c0-1.29501-.95496-2.056-2.44299-2.056h-2.76697v6.23h1.37402v-2.006h1.08496l1.32703,2.006h1.60199l-1.521-2.233c.79303-.291,1.34296-.922,1.34296-1.94099m-1.39197,.08099c0,.534-.37201,.90601-1.06702,.90601h-1.37695v-1.829h1.34302c.67896,0,1.10095,.308,1.10095,.923m-338.914,6.857h31.70401l5.918-17.242h41.961l6.07199,17.242h31.21301l-39.94101-110.216h-33.57901l-43.34799,110.216Zm46.479-37.182l12.27899-36.63901,12.121,36.63901h-24.39999Z"/>
    </g>
  </g>
</svg>